<svg width="17" height="17" viewBox="0 0 17 17" fill="none" xmlns="http://www.w3.org/2000/svg">
<path d="M8.49967 4.5555C8.77582 4.5555 8.99967 4.77936 8.99967 5.0555V9.0555C8.99967 9.33164 8.77582 9.5555 8.49967 9.5555C8.22353 9.5555 7.99967 9.33164 7.99967 9.0555V5.0555C7.99967 4.77936 8.22353 4.5555 8.49967 4.5555Z" fill="#D92D20"/>
<path d="M8.49967 11.7222C8.86786 11.7222 9.16634 11.4237 9.16634 11.0555C9.16634 10.6873 8.86786 10.3888 8.49967 10.3888C8.13148 10.3888 7.83301 10.6873 7.83301 11.0555C7.83301 11.4237 8.13148 11.7222 8.49967 11.7222Z" fill="#D92D20"/>
<path fill-rule="evenodd" clip-rule="evenodd" d="M1.33301 8.38883C1.33301 4.43079 4.54163 1.22217 8.49967 1.22217C12.4577 1.22217 15.6663 4.43079 15.6663 8.38883C15.6663 12.3469 12.4577 15.5555 8.49967 15.5555C4.54163 15.5555 1.33301 12.3469 1.33301 8.38883ZM8.49967 2.22217C5.09392 2.22217 2.33301 4.98308 2.33301 8.38883C2.33301 11.7946 5.09392 14.5555 8.49967 14.5555C11.9054 14.5555 14.6663 11.7946 14.6663 8.38883C14.6663 4.98308 11.9054 2.22217 8.49967 2.22217Z" fill="#D92D20"/>
</svg>
