<svg width="16" height="15" viewBox="0 0 16 15" fill="none" xmlns="http://www.w3.org/2000/svg">
<path d="M10.6866 6.07572C10.8818 5.88046 10.8818 5.56388 10.6866 5.36861C10.4913 5.17335 10.1747 5.17335 9.97945 5.36861L6.99967 8.34839L6.01989 7.36861C5.82463 7.17335 5.50805 7.17335 5.31279 7.36861C5.11753 7.56388 5.11753 7.88046 5.31279 8.07572L6.64612 9.40906C6.84138 9.60432 7.15797 9.60432 7.35323 9.40906L10.6866 6.07572Z" fill="#039855"/>
<path fill-rule="evenodd" clip-rule="evenodd" d="M7.99967 0.222168C4.04163 0.222168 0.833008 3.43079 0.833008 7.38883C0.833008 11.3469 4.04163 14.5555 7.99967 14.5555C11.9577 14.5555 15.1663 11.3469 15.1663 7.38883C15.1663 3.43079 11.9577 0.222168 7.99967 0.222168ZM1.83301 7.38883C1.83301 3.98308 4.59392 1.22217 7.99967 1.22217C11.4054 1.22217 14.1663 3.98308 14.1663 7.38883C14.1663 10.7946 11.4054 13.5555 7.99967 13.5555C4.59392 13.5555 1.83301 10.7946 1.83301 7.38883Z" fill="#039855"/>
</svg>
