<svg width="15" height="14" viewBox="0 0 15 14" fill="none" xmlns="http://www.w3.org/2000/svg">
<path d="M7.49966 4.22201C7.77581 4.22201 7.99966 4.44586 7.99966 4.72201V8.05534C7.99966 8.33148 7.77581 8.55534 7.49966 8.55534C7.22352 8.55534 6.99966 8.33148 6.99966 8.05534V4.72201C6.99966 4.44586 7.22352 4.22201 7.49966 4.22201Z" fill="#DC6803"/>
<path d="M7.49966 10.722C7.86785 10.722 8.16633 10.4235 8.16633 10.0553C8.16633 9.68715 7.86785 9.38867 7.49966 9.38867C7.13147 9.38867 6.833 9.68715 6.833 10.0553C6.833 10.4235 7.13147 10.722 7.49966 10.722Z" fill="#DC6803"/>
<path fill-rule="evenodd" clip-rule="evenodd" d="M5.02928 2.37296C5.74388 1.46529 6.50089 0.888672 7.49966 0.888672C8.49843 0.888672 9.25544 1.46529 9.97004 2.37296C10.6728 3.26563 11.4176 4.58615 12.3705 6.27569L12.6608 6.79045C13.4486 8.1871 14.0708 9.29019 14.3976 10.1756C14.7315 11.0804 14.8109 11.902 14.3057 12.6266C13.8154 13.3298 12.9974 13.6176 11.9658 13.7534C10.9381 13.8887 9.55599 13.8887 7.78289 13.8887H7.21646C5.44336 13.8887 4.06127 13.8887 3.03355 13.7534C2.00188 13.6176 1.18392 13.3298 0.693667 12.6266C0.188461 11.902 0.267797 11.0804 0.601765 10.1756C0.928566 9.29019 1.55073 8.18711 2.33846 6.79047L2.62875 6.27578C3.58167 4.5862 4.32647 3.26565 5.02928 2.37296ZM5.81499 2.99155C5.16565 3.81632 4.4577 5.06859 3.47631 6.80863L3.23387 7.23848C2.41639 8.6879 1.83546 9.7211 1.5399 10.5219C1.24814 11.3123 1.28859 11.7314 1.514 12.0547C1.75435 12.3995 2.20549 12.6358 3.16407 12.762C4.11873 12.8876 5.43474 12.8887 7.25722 12.8887H7.7421C9.56458 12.8887 10.8806 12.8876 11.8353 12.762C12.7938 12.6358 13.245 12.3995 13.4853 12.0547C13.7107 11.7314 13.7512 11.3123 13.4594 10.5219C13.1639 9.7211 12.5829 8.6879 11.7654 7.23848L11.523 6.80863C10.5416 5.06859 9.83367 3.81632 9.18433 2.99155C8.54102 2.17444 8.04139 1.88867 7.49966 1.88867C6.95793 1.88867 6.4583 2.17444 5.81499 2.99155Z" fill="#DC6803"/>
</svg>
